<svg width="36" height="36" viewBox="0 0 36 36" fill="none" xmlns="http://www.w3.org/2000/svg">
<path d="M24 3H12C6 3 3 6 3 12V31.5C3 32.325 3.675 33 4.5 33H24C30 33 33 30 33 24V12C33 6 30 3 24 3ZM23.25 19.125H19.125V23.25C19.125 23.865 18.615 24.375 18 24.375C17.385 24.375 16.875 23.865 16.875 23.25V19.125H12.75C12.135 19.125 11.625 18.615 11.625 18C11.625 17.385 12.135 16.875 12.75 16.875H16.875V12.75C16.875 12.135 17.385 11.625 18 11.625C18.615 11.625 19.125 12.135 19.125 12.75V16.875H23.25C23.865 16.875 24.375 17.385 24.375 18C24.375 18.615 23.865 19.125 23.25 19.125Z" fill="white"/>
</svg>
