<svg width="25" height="24" viewBox="0 0 25 24" fill="none" xmlns="http://www.w3.org/2000/svg">
<path d="M14.899 5.55326C15.1766 5.69198 15.4826 5.76419 15.793 5.76419C16.1033 5.76419 16.4094 5.69198 16.687 5.55326L20.346 3.72326C20.4985 3.64702 20.6681 3.61107 20.8385 3.61883C21.0089 3.62659 21.1744 3.6778 21.3194 3.76759C21.4644 3.85738 21.5841 3.98277 21.667 4.13184C21.7498 4.28091 21.7932 4.4487 21.793 4.61926V17.3833C21.7929 17.5689 21.7411 17.7509 21.6434 17.9088C21.5458 18.0667 21.4061 18.1943 21.24 18.2773L16.687 20.5543C16.4094 20.693 16.1033 20.7652 15.793 20.7652C15.4826 20.7652 15.1766 20.693 14.899 20.5543L10.687 18.4483C10.4094 18.3095 10.1033 18.2373 9.79297 18.2373C9.48264 18.2373 9.17657 18.3095 8.89897 18.4483L5.23997 20.2783C5.08732 20.3545 4.91769 20.3905 4.74723 20.3827C4.57676 20.3749 4.41113 20.3236 4.26609 20.2337C4.12105 20.1438 4.00143 20.0182 3.91862 19.869C3.8358 19.7198 3.79255 19.5519 3.79297 19.3813V6.61826C3.79307 6.4326 3.84485 6.25063 3.94252 6.09273C4.04019 5.93484 4.17989 5.80725 4.34597 5.72426L8.89897 3.44726C9.17657 3.30854 9.48264 3.23633 9.79297 3.23633C10.1033 3.23633 10.4094 3.30854 10.687 3.44726L14.899 5.55326Z" stroke="#03050C" stroke-width="2" stroke-linecap="round" stroke-linejoin="round"/>
<path d="M15.793 5.76367V20.7637" stroke="#03050C" stroke-width="2" stroke-linecap="round" stroke-linejoin="round"/>
<path d="M9.79297 3.23633V18.2363" stroke="#03050C" stroke-width="2" stroke-linecap="round" stroke-linejoin="round"/>
</svg>
