<svg width="16" height="16" viewBox="0 0 16 16" fill="none" xmlns="http://www.w3.org/2000/svg">
<path d="M2.03052 2.03033C4.73783 -0.676855 9.12779 -0.67669 11.8352 2.03033C14.3436 4.53866 14.5276 8.49138 12.3879 11.212L15.7571 14.5801C16.0818 14.905 16.0818 15.4321 15.7571 15.7569C15.4323 16.0817 14.9052 16.0816 14.5803 15.7569L11.2122 12.3887C8.4915 14.5279 4.53876 14.3432 2.03052 11.835C-0.676749 9.12769 -0.67684 4.73761 2.03052 2.03033ZM10.6584 3.20709C8.6008 1.14981 5.26481 1.14962 3.20728 3.20709C1.14971 5.2646 1.14982 8.60069 3.20728 10.6583C5.26487 12.7158 8.60081 12.7157 10.6584 10.6583C12.7161 8.6007 12.7161 5.26466 10.6584 3.20709Z" fill="#53575F"/>
</svg>
